<?xml version="1.0" encoding="UTF-8"?><svg id="Layer_2" xmlns="http://www.w3.org/2000/svg" viewBox="0 0 1483.21 535.93"><defs><style>.cls-1,.cls-2,.cls-3,.cls-4{stroke-width:0px;}.cls-2{fill:#257226;}.cls-3{fill:#b7db57;}.cls-4{fill:#fff;}</style></defs><g id="artwork"><rect class="cls-4" x="348.93" y="0" width="1134.28" height="535.93" rx="37.44" ry="37.44"/><path class="cls-1" d="m606.76,71.26h22.38v98.2h-22.38v-98.2Z"/><path class="cls-1" d="m684.5,150.62c0-2.06-.86-3.66-2.58-4.79-1.72-1.13-5.08-2.18-10.08-3.17l-4.86-1.03c-7.36-1.57-12.71-4.17-16.05-7.8-3.34-3.63-5.01-8-5.01-13.1,0-6.97,2.75-12.46,8.25-16.49,5.5-4.02,13-6.04,22.53-6.04,10.11,0,18.85,2.8,26.21,8.39l-7.36,13.69c-2.75-1.96-5.72-3.51-8.91-4.64-3.19-1.13-6.55-1.69-10.09-1.69s-6.28.42-7.95,1.25c-1.67.83-2.5,2.19-2.5,4.05s.71,3.26,2.14,4.2c1.42.93,4.14,1.79,8.17,2.58l5.74,1.18c8.15,1.67,13.99,4.37,17.52,8.1,3.53,3.73,5.3,8.15,5.3,13.25s-1.4,9.52-4.2,12.96c-2.8,3.44-6.63,5.99-11.48,7.66-4.86,1.67-10.43,2.5-16.71,2.5s-12.07-.88-17.37-2.65c-5.3-1.77-9.67-4.17-13.1-7.21l8.69-14.43c3.34,2.55,6.87,4.61,10.6,6.18,3.73,1.57,7.85,2.36,12.37,2.36,7.16,0,10.75-1.77,10.75-5.3Z"/><path class="cls-1" d="m717.48,71.26h21.2v98.2h-21.2v-98.2Z"/><path class="cls-1" d="m752.52,135.45c0-7.26,1.52-13.69,4.56-19.29,3.04-5.59,7.24-9.99,12.59-13.18,5.35-3.19,11.51-4.79,18.48-4.79s13.05,1.6,18.26,4.79c5.2,3.19,9.28,7.68,12.22,13.47,2.94,5.79,4.42,12.51,4.42,20.17v4.71h-49.76c.78,4.32,2.82,7.68,6.11,10.08,3.29,2.41,7.63,3.61,13.03,3.61,7.46,0,14.28-2.36,20.46-7.07l8.25,13.4c-3.53,3.24-7.98,5.77-13.32,7.58-5.35,1.82-11.07,2.72-17.15,2.72-7.66,0-14.35-1.47-20.1-4.42-5.74-2.95-10.18-7.14-13.32-12.59-3.14-5.45-4.71-11.85-4.71-19.21Zm45.94-16.49c-2.55-2.26-5.79-3.39-9.72-3.39-4.12,0-7.53,1.15-10.23,3.46-2.7,2.31-4.39,5.47-5.08,9.5h29.89c-.69-4.12-2.31-7.31-4.86-9.57Z"/><path class="cls-1" d="m856.9,134.86c0-7.07,1.64-13.37,4.93-18.92,3.29-5.54,7.78-9.89,13.47-13.03,5.69-3.14,12.12-4.71,19.29-4.71s13.74,1.57,19.43,4.71c5.69,3.14,10.18,7.46,13.47,12.96,3.29,5.5,4.93,11.83,4.93,18.99s-1.64,13.38-4.93,18.92c-3.29,5.55-7.78,9.92-13.47,13.1-5.69,3.19-12.17,4.78-19.43,4.78s-13.6-1.57-19.29-4.71c-5.69-3.14-10.18-7.48-13.47-13.03-3.29-5.54-4.93-11.9-4.93-19.07Zm21.2.15c0,5.5,1.55,9.94,4.64,13.32,3.09,3.39,7.04,5.08,11.85,5.08s8.91-1.69,12-5.08c3.09-3.39,4.64-7.88,4.64-13.47s-1.52-9.94-4.56-13.32c-3.04-3.39-7.02-5.08-11.93-5.08s-8.91,1.69-12,5.08c-3.09,3.39-4.64,7.88-4.64,13.47Z"/><path class="cls-1" d="m938.61,100.41h11.19v-1.77c0-9.32,2.53-16.59,7.58-21.79,5.05-5.2,12.05-7.8,20.98-7.8,7.66,0,14.43,2.21,20.32,6.62l-7.51,13.69c-2.85-2.55-6.14-3.83-9.86-3.83-6.87,0-10.31,3.93-10.31,11.78v3.09h16.64v16.49h-16.64v52.56h-21.2v-52.56h-11.19v-16.49Z"/><path class="cls-1" d="m1054.34,140.9l17.81-67.13h20.61l17.67,67.43,14.43-69.93h22.82l-25.03,98.2h-23.7l-16.93-63.75-16.93,63.75h-23.7l-25.03-98.2h23.7l14.28,69.64Z"/><path class="cls-1" d="m1157.1,71.85h21.94v18.4h-21.94v-18.4Zm.29,28.56h21.2v69.05h-21.2v-69.05Z"/><path class="cls-1" d="m1241.9,166.67v-6.63c-4.52,6.68-11.44,10.01-20.76,10.01-5.99,0-11.26-1.4-15.83-4.2-4.56-2.8-8.1-6.75-10.6-11.85-2.5-5.1-3.75-11.04-3.75-17.81,0-7.75,1.72-14.48,5.15-20.17,3.43-5.69,8.32-10.08,14.65-13.18s13.81-4.64,22.45-4.64c4.91,0,9.94.51,15.09,1.55,5.15,1.03,9.84,2.43,14.06,4.2v61.1c0,11.88-3.19,20.86-9.57,26.94-6.38,6.08-15.85,9.13-28.42,9.13s-22.13-2.95-30.18-8.83l8.1-14.58c6.58,4.42,13.45,6.62,20.61,6.62,12.66,0,18.99-5.89,18.99-17.67Zm-.74-29.59v-19.43c-3.34-.78-6.38-1.18-9.13-1.18-6.09,0-10.92,1.67-14.5,5.01-3.58,3.34-5.37,8.05-5.37,14.13,0,5.3,1.35,9.52,4.05,12.66,2.7,3.14,6.31,4.71,10.82,4.71s7.75-1.45,10.31-4.34c2.55-2.89,3.83-6.75,3.83-11.56Z"/><path class="cls-1" d="m1278.12,71.26h21.2v38.13c2.26-3.53,5.25-6.28,8.98-8.25,3.73-1.96,8.05-2.94,12.96-2.94,7.75,0,13.81,2.48,18.18,7.43,4.37,4.96,6.55,11.8,6.55,20.54v43.29h-21.2v-38.87c0-9.03-3.88-13.54-11.63-13.54-4.22,0-7.58,1.5-10.08,4.49-2.5,3-3.75,7.09-3.75,12.29v35.63h-21.2v-98.2Z"/><path class="cls-1" d="m1355.42,100.41h11.19v-22.53h21.2v22.53h18.11v16.49h-18.11v27.53c0,6.87,2.85,10.31,8.54,10.31,3.04,0,5.94-1.18,8.69-3.53l7.36,13.69c-2.75,2.16-5.79,3.83-9.13,5.01-3.34,1.18-7.07,1.77-11.19,1.77-16.98,0-25.47-8.78-25.47-26.35v-28.42h-11.19v-16.49Z"/><path class="cls-1" d="m608.68,218.49h13.25l55.5,78.03v-78.03h12.96v98.2h-13.1l-55.65-78.18v78.18h-12.96v-98.2Z"/><path class="cls-1" d="m707.17,296.67c0-7.26,2.7-12.98,8.1-17.15,5.4-4.17,13.1-6.26,23.12-6.26,2.26,0,4.78.12,7.58.37,2.8.25,5.52.57,8.17.96v-3.09c0-9.72-5.89-14.58-17.67-14.58-7.85,0-14.58,2.16-20.17,6.48l-5.89-8.54c7.46-5.69,16.34-8.54,26.65-8.54,9.13,0,16.22,2.16,21.27,6.48,5.05,4.32,7.58,10.31,7.58,17.96v45.93h-11.04l-.44-9.13c-2.36,3.53-5.59,6.28-9.72,8.24-4.12,1.96-8.64,2.95-13.54,2.95-7.17,0-12.96-1.99-17.37-5.96-4.42-3.98-6.63-9.35-6.63-16.12Zm12.07-.15c0,3.93,1.27,6.97,3.83,9.13,2.55,2.16,6.04,3.24,10.45,3.24,3.83,0,7.31-.79,10.45-2.36,3.14-1.57,5.62-3.63,7.43-6.18,1.82-2.55,2.72-5.35,2.72-8.39v-7.95c-2.55-.49-5.1-.83-7.66-1.03-2.55-.2-4.86-.29-6.92-.29-6.58,0-11.61,1.18-15.09,3.53-3.49,2.36-5.23,5.79-5.23,10.31Z"/><path class="cls-1" d="m777.55,248.38h12.51v-22.38h12.37v22.38h20.32v10.31h-20.32v36.07c0,4.61.81,7.98,2.43,10.08,1.62,2.11,4.2,3.17,7.73,3.17,2.16,0,4.1-.39,5.82-1.18,1.72-.78,3.51-1.96,5.37-3.53l5.89,7.8c-5.1,5.1-11.24,7.66-18.4,7.66s-12.12-2.04-15.75-6.11c-3.63-4.07-5.45-10.03-5.45-17.89v-36.07h-12.51v-10.31Z"/><path class="cls-1" d="m839.38,221.73h13.84v14.13h-13.84v-14.13Zm.74,26.65h12.37v68.31h-12.37v-68.31Z"/><path class="cls-1" d="m867.65,282.39c0-6.87,1.57-13,4.71-18.4,3.14-5.4,7.43-9.69,12.88-12.88,5.45-3.19,11.61-4.79,18.48-4.79s13,1.6,18.4,4.79c5.4,3.19,9.69,7.49,12.88,12.88,3.19,5.4,4.79,11.53,4.79,18.4s-1.6,13.05-4.79,18.55c-3.19,5.5-7.49,9.84-12.88,13.03-5.4,3.19-11.53,4.79-18.4,4.79s-13.03-1.6-18.48-4.79-9.74-7.53-12.88-13.03c-3.14-5.5-4.71-11.68-4.71-18.55Zm12.66.15c0,4.91,1,9.27,3.02,13.1,2.01,3.83,4.79,6.82,8.32,8.98,3.53,2.16,7.56,3.24,12.07,3.24s8.51-1.08,12-3.24c3.48-2.16,6.26-5.15,8.32-8.98,2.06-3.83,3.09-8.19,3.09-13.1s-1.01-9.28-3.02-13.1c-2.01-3.83-4.79-6.82-8.32-8.98-3.53-2.16-7.56-3.24-12.07-3.24s-8.54,1.08-12.07,3.24c-3.53,2.16-6.31,5.15-8.32,8.98-2.01,3.83-3.02,8.2-3.02,13.1Z"/><path class="cls-1" d="m954.96,248.38h11.63l.44,10.31c2.45-3.92,5.74-6.97,9.86-9.13,4.12-2.16,8.83-3.24,14.13-3.24,8.15,0,14.48,2.55,18.99,7.66,4.51,5.1,6.77,12.22,6.77,21.35v41.37h-12.37v-40.34c0-6.28-1.42-11.07-4.27-14.36-2.85-3.29-6.92-4.93-12.22-4.93-6.28,0-11.29,2.21-15.02,6.62-3.73,4.42-5.59,10.36-5.59,17.81v35.19h-12.37v-68.31Z"/><path class="cls-1" d="m1030.93,296.67c0-7.26,2.7-12.98,8.1-17.15,5.4-4.17,13.1-6.26,23.12-6.26,2.26,0,4.78.12,7.58.37,2.8.25,5.52.57,8.17.96v-3.09c0-9.72-5.89-14.58-17.67-14.58-7.85,0-14.58,2.16-20.17,6.48l-5.89-8.54c7.46-5.69,16.34-8.54,26.65-8.54,9.13,0,16.22,2.16,21.27,6.48,5.05,4.32,7.58,10.31,7.58,17.96v45.93h-11.04l-.44-9.13c-2.36,3.53-5.59,6.28-9.72,8.24-4.12,1.96-8.64,2.95-13.54,2.95-7.17,0-12.96-1.99-17.37-5.96-4.42-3.98-6.63-9.35-6.63-16.12Zm12.07-.15c0,3.93,1.27,6.97,3.83,9.13,2.55,2.16,6.04,3.24,10.45,3.24,3.83,0,7.31-.79,10.45-2.36,3.14-1.57,5.62-3.63,7.43-6.18,1.82-2.55,2.72-5.35,2.72-8.39v-7.95c-2.55-.49-5.1-.83-7.66-1.03-2.55-.2-4.86-.29-6.92-.29-6.58,0-11.61,1.18-15.09,3.53-3.49,2.36-5.23,5.79-5.23,10.31Z"/><path class="cls-1" d="m1107.78,218.49h12.37v98.2h-12.37v-98.2Z"/><path class="cls-1" d="m608.68,365.72h13.25v86.42h51.68v11.78h-64.93v-98.2Z"/><path class="cls-1" d="m685.38,443.89c0-7.26,2.7-12.98,8.1-17.15,5.4-4.17,13.1-6.26,23.12-6.26,2.26,0,4.78.12,7.58.37,2.8.25,5.52.57,8.17.96v-3.09c0-9.72-5.89-14.58-17.67-14.58-7.85,0-14.58,2.16-20.17,6.48l-5.89-8.54c7.46-5.69,16.34-8.54,26.65-8.54,9.13,0,16.22,2.16,21.27,6.48,5.05,4.32,7.58,10.31,7.58,17.96v45.93h-11.04l-.44-9.13c-2.36,3.53-5.59,6.28-9.72,8.24-4.12,1.96-8.64,2.95-13.54,2.95-7.17,0-12.96-1.99-17.37-5.96-4.42-3.98-6.63-9.35-6.63-16.12Zm12.07-.15c0,3.93,1.27,6.97,3.83,9.13,2.55,2.16,6.04,3.24,10.45,3.24,3.83,0,7.31-.79,10.45-2.36,3.14-1.57,5.62-3.63,7.43-6.18,1.82-2.55,2.72-5.35,2.72-8.39v-7.95c-2.55-.49-5.1-.83-7.66-1.03-2.55-.2-4.86-.29-6.92-.29-6.58,0-11.61,1.18-15.09,3.53-3.49,2.36-5.23,5.79-5.23,10.31Z"/><path class="cls-1" d="m762.24,395.6h11.63l.44,10.31c2.45-3.92,5.74-6.97,9.86-9.13,4.12-2.16,8.83-3.24,14.13-3.24,8.15,0,14.48,2.55,18.99,7.66,4.51,5.1,6.77,12.22,6.77,21.35v41.37h-12.37v-40.34c0-6.28-1.42-11.07-4.27-14.36-2.85-3.29-6.92-4.93-12.22-4.93-6.28,0-11.29,2.21-15.02,6.62-3.73,4.42-5.59,10.36-5.59,17.81v35.19h-12.37v-68.31Z"/><path class="cls-1" d="m838.79,431.53c0-7.36,1.52-13.91,4.56-19.66,3.04-5.74,7.24-10.23,12.59-13.47,5.35-3.24,11.46-4.86,18.33-4.86,6.18,0,12.12,1.57,17.81,4.71v-32.54h12.37v98.2h-11.63l-.44-8.69c-2.26,3.44-5.3,6.09-9.13,7.95s-8.2,2.8-13.1,2.8c-6.18,0-11.63-1.45-16.34-4.34-4.71-2.89-8.39-6.94-11.04-12.15-2.65-5.2-3.98-11.19-3.98-17.96Zm12.66-.88c0,7.46,1.84,13.4,5.52,17.81s8.66,6.62,14.94,6.62c5.89,0,10.72-1.96,14.5-5.89,3.78-3.92,5.67-8.93,5.67-15.02v-24.44c-5.2-3.53-10.85-5.3-16.93-5.3-7.17,0-12.91,2.38-17.23,7.14-4.32,4.76-6.48,11.12-6.48,19.07Z"/><path class="cls-1" d="m963.79,445.37c0-2.85-1.2-5.08-3.61-6.7-2.41-1.62-6.46-2.97-12.15-4.05l-4.71-.88c-14.04-2.65-21.05-9.13-21.05-19.43,0-6.28,2.48-11.31,7.44-15.09,4.96-3.78,11.56-5.67,19.8-5.67,10.11,0,18.4,2.95,24.88,8.83l-6.77,8.54c-5.3-4.61-11.68-6.92-19.14-6.92-4.52,0-8,.81-10.45,2.43-2.46,1.62-3.68,3.9-3.68,6.85,0,2.65,1.13,4.74,3.39,6.26,2.26,1.52,6.08,2.82,11.48,3.9l4.71.88c7.66,1.47,13.3,3.83,16.93,7.07,3.63,3.24,5.45,7.56,5.45,12.96,0,6.68-2.53,11.95-7.58,15.83-5.06,3.88-11.95,5.82-20.69,5.82-5.99,0-11.48-.91-16.49-2.72-5.01-1.82-9.13-4.39-12.37-7.73l7.66-8.25c5.5,5.5,12.56,8.25,21.2,8.25,5.1,0,9-.88,11.71-2.65,2.7-1.77,4.05-4.27,4.05-7.51Z"/><path class="cls-1" d="m988.82,430.05c0-7.07,1.59-13.35,4.79-18.84,3.19-5.5,7.58-9.81,13.18-12.96,5.59-3.14,11.93-4.71,18.99-4.71,10.5,0,19.19,3.83,26.06,11.48l-8.1,7.8c-2.16-2.65-4.83-4.71-8.02-6.18-3.19-1.47-6.65-2.21-10.38-2.21-4.61,0-8.71,1.1-12.29,3.31-3.58,2.21-6.41,5.23-8.47,9.05-2.06,3.83-3.09,8.2-3.09,13.1s1.03,9.25,3.09,13.03c2.06,3.78,4.88,6.75,8.47,8.91,3.58,2.16,7.73,3.24,12.44,3.24,7.66,0,13.99-2.89,18.99-8.69l7.66,8.1c-6.77,7.66-15.71,11.48-26.8,11.48-7.07,0-13.35-1.55-18.84-4.64-5.5-3.09-9.82-7.34-12.96-12.74-3.14-5.4-4.71-11.58-4.71-18.55Z"/><path class="cls-1" d="m1061.4,443.89c0-7.26,2.7-12.98,8.1-17.15,5.4-4.17,13.1-6.26,23.12-6.26,2.26,0,4.78.12,7.58.37,2.8.25,5.52.57,8.17.96v-3.09c0-9.72-5.89-14.58-17.67-14.58-7.85,0-14.58,2.16-20.17,6.48l-5.89-8.54c7.46-5.69,16.34-8.54,26.65-8.54,9.13,0,16.22,2.16,21.27,6.48,5.05,4.32,7.58,10.31,7.58,17.96v45.93h-11.04l-.44-9.13c-2.36,3.53-5.59,6.28-9.72,8.24-4.12,1.96-8.64,2.95-13.54,2.95-7.17,0-12.96-1.99-17.37-5.96-4.42-3.98-6.63-9.35-6.63-16.12Zm12.07-.15c0,3.93,1.27,6.97,3.83,9.13,2.55,2.16,6.04,3.24,10.45,3.24,3.83,0,7.31-.79,10.45-2.36,3.14-1.57,5.62-3.63,7.43-6.18,1.82-2.55,2.72-5.35,2.72-8.39v-7.95c-2.55-.49-5.1-.83-7.66-1.03-2.55-.2-4.86-.29-6.92-.29-6.58,0-11.61,1.18-15.09,3.53-3.49,2.36-5.23,5.79-5.23,10.31Z"/><path class="cls-1" d="m1138.26,395.6h11.63l.44,8.39c4.61-6.97,11.97-10.45,22.08-10.45,6.28,0,11.78,1.45,16.49,4.34,4.71,2.9,8.39,6.92,11.04,12.07,2.65,5.15,3.97,11.17,3.97,18.04,0,7.36-1.52,13.89-4.56,19.58-3.04,5.69-7.24,10.18-12.59,13.47-5.35,3.29-11.46,4.93-18.33,4.93-6.09,0-12.02-1.57-17.81-4.71v32.1h-12.37v-97.76Zm53,33.13c0-7.36-1.84-13.25-5.52-17.67s-8.66-6.62-14.94-6.62c-5.89,0-10.72,1.94-14.5,5.82-3.78,3.88-5.67,8.86-5.67,14.94v24.59c5.2,3.53,10.84,5.3,16.93,5.3,7.26,0,13.03-2.38,17.3-7.14,4.27-4.76,6.4-11.16,6.4-19.21Z"/><path class="cls-1" d="m1215.7,429.76c0-7.07,1.45-13.32,4.34-18.77,2.89-5.45,6.89-9.72,12-12.81,5.1-3.09,10.94-4.64,17.52-4.64s12.51,1.6,17.52,4.79c5.01,3.19,8.91,7.63,11.7,13.32,2.8,5.69,4.2,12.32,4.2,19.88v1.91h-54.77c.39,6.68,2.75,11.95,7.07,15.83,4.32,3.88,9.96,5.82,16.93,5.82,8.25,0,15.51-2.89,21.79-8.69l7.07,7.51c-3.63,3.93-7.98,6.92-13.03,8.98-5.06,2.06-10.48,3.09-16.27,3.09-7.07,0-13.32-1.52-18.77-4.56s-9.69-7.29-12.74-12.74c-3.04-5.45-4.56-11.75-4.56-18.92Zm48.29-20.02c-3.63-3.53-8.34-5.3-14.13-5.3s-10.95,1.79-14.87,5.37c-3.93,3.58-6.18,8.32-6.77,14.21h41.96c-.49-5.99-2.55-10.75-6.18-14.28Z"/><path class="cls-3" d="m37.44,0h498.5v535.93H37.44c-20.66,0-37.44-16.77-37.44-37.44V37.44C0,16.77,16.77,0,37.44,0Z"/><path class="cls-2" d="m535.93,324.68c-3.55.32-7.28-.18-10.78-.97-8.37-1.9-16.37-5.09-24.34-8.28-9.4-3.76-18.81-7.52-28.13-11.48-3-1.28-6.31-5.25-1.87-7.2,3.47-1.52,8.7-1.64,12.45-2.25,9.23-1.52,18.58-2.37,27.95-2.36,5.33,0,10.66.29,15.96.89,2.95.33,5.91.78,8.76,1.59v-40.56c-17.67-.64-34.96.86-49.89,2.49-49.74,5.43-104.52,13.12-159.66,30.29,2.73-12.04-3.05-24.81-14.65-30.4-11.6-5.6-25.19-2.18-32.92,7.45-20.87-53.85-48.94-101.52-75.63-143.84-9.24-14.64-20.56-31.64-34.49-46.69-11.02-11.9-21.28-20.08-32.28-25.76-8.47-4.37-16.53-6.52-24.67-6.58-19.91-.15-35.55,14.17-38.04,34.83-.76,6.31-.37,11.73,1.18,16.57,3.63,11.26,4.35,23.67,2.34,40.25-2.31,19.04-7.21,37.46-11.22,51.37-5.36,18.58-8.08,36.04-8.34,53.4-.21,14.43,2.39,26.53,7.97,36.99,5.6,10.51,13.91,18.96,25.33,25.72-2.03,1.93-4.09,3.9-6.06,5.94-11.45,11.79-20.05,24.04-26.3,37.46-14.01,30.12-12.94,59.78,3.19,88.17,9.18,16.16,19.6,29.24,31.86,39.99,3.77,3.3,8.33,6.34,13.57,9.04,8.79,4.59,18.57,4.49,28.17-.13,8-3.85,14.41-9.41,20.82-15.25,15.34-13.98,31.53-27.06,45.58-37.97-2.52,8.86-5.04,18.93-5.63,29.32-.27,4.84.03,9.41.91,13.57.9,4.24,3.09,7.55,6.21,9.47l-.04.07s0,0,.01,0c.18.09.37.15.56.23.18.1.34.21.52.3,0,0,0,0,.01,0l.03-.07c3.45,1.25,7.41.91,11.28-1.03,3.8-1.9,7.57-4.5,11.19-7.73,7.77-6.92,14.08-15.17,19.45-22.65.19,17.79.03,38.6-1.37,59.31-.58,8.65-.95,17.13,1.02,25.78.15.68.36,1.31.55,1.96h135.2c7.57-7.5,14.05-16.53,19.35-27.14,6.62-13.24,10.86-27.59,12.96-43.89.36-2.81.63-5.65.87-8.44,12.4,4.73,24.18,5.98,35.89,3.83,11.66-2.15,22.75-7.63,33.92-16.78,13.43-11,25.4-24,36.61-39.75,4.18-5.87,9.09-12.61,14.63-19.57v-59.5Zm-100.4-8.21c15.21,1.29,30.15,5.57,43.74,12.51.86.44,1.46,1.3,1.49,2.26.12,4.35-1.44,8.57-4.07,12.1-2.74,3.68-6.82,6.34-11.29,7.37-.63.15-1.29.03-1.87-.27-14.66-7.88-29.54-15.71-44.23-23.58-1.97-1.05-1.9-3.89.11-4.86,5.31-2.56,10.56-6,16.12-5.53Zm-66.92,21.94c-1.6-1.02-1.18-3.46.67-3.86,6.1-1.31,12.23-2.95,18.39-3.35,1.27-.08,2.53.21,3.67.77,17.82,8.73,35.26,18.21,52.28,28.42,1.49.89,1.96,2.89.95,4.3-2.39,3.35-5.54,6.14-9.27,7.87-4.47,2.08-9.57,2.77-14.43,1.96-.48-.08-.93-.29-1.32-.58-16.46-12.42-33.5-24.48-50.94-35.54Zm21.34,38.72c-4.79,4.47-10.54,7.55-17.15,8.21-7.7.76-15.66-1.42-21.9-6-12.98-9.54-23.15-21.97-34.02-33.84-1.56-1.71-.33-4.43,1.99-4.46,12.69-.15,25.34,3.64,36.76,9.32,12.22,6.08,23.25,14.25,34.11,22.53,1.37,1.04,1.46,3.07.21,4.24Zm-83.75-58.96c10.55-6.23,21.73-11.39,33.29-15.44,20.43-7.15,42.07-10.81,63.72-10.75,7.03.02,20.93-1.3,25.82,5.44,5.26,7.26-15.89,11.89-20.13,12.96-32.62,8.24-66.15,12.9-99.78,13.84-1.2.03-2.44.06-3.54-.41-1.1-.46-2.04-1.55-1.94-2.74.12-1.34,1.39-2.23,2.55-2.91Zm-29.39,153.23l8.75-32.67c.32-1.18,2.03-1.02,2.12.2.82,11.62,2.14,24.61,3.29,35.92.23,2.27-1.53,4.28-3.81,4.32-3.51.06-7.07-1.54-9.51-4.17-.89-.96-1.17-2.34-.83-3.6Zm-89.11-274.53c3.83,4.06,4.41,10.31,5.71,16.06.49,2.18-1.69,4-3.74,3.11-15.3-6.61-30.69-13.38-45.98-19.95-.6-.26-1.1-.71-1.38-1.29-1.97-4.14-2.43-8.99-1.25-13.42,1.13-4.26,3.46-8.1,6.94-10.72.77-.58,1.82-.64,2.7-.24,13.89,6.32,26.54,15.35,37.01,26.45Zm15.36,44.23c1.15.55,2.16,1.36,2.89,2.4,3.52,5.07,6.04,10.89,8.82,16.49.84,1.7-.81,3.55-2.6,2.93-19.51-6.77-39.56-12.61-59.52-17.77-.47-.12-.92-.35-1.28-.68-3.65-3.3-6.29-7.73-7.44-12.52-.96-4-.73-8.2.4-12.15.48-1.67,2.33-2.55,3.96-1.94,18.58,6.97,36.85,14.73,54.77,23.24ZM127.57,100.47c4.05-.71,8.27.38,11.88,2.36,3.61,1.98,6.68,4.79,9.59,7.71,3.76,3.78,7.31,7.77,10.63,11.95,5.83,7.32,10.98,15.17,15.54,23.35,1.85,3.32,5.02,7.49,5.98,11.15,1.23,4.69-3.94,4.57-6.81,3.02-8.9-4.83-17.69-9.86-26.49-14.88-7.45-4.25-14.93-8.53-21.62-13.9-4.9-3.93-9.6-8.94-10.31-15.18-.81-7.09,4.59-14.33,11.62-15.57Zm-27.28,59.45c2.93-4.71,8.97-6.73,14.51-6.38,4.43.28,9.43,2.9,13.84,5.1,1.57.78,2.04,2.77.99,4.18-4.67,6.29-7.18,14.16-7.02,21.99.04,2.04-1.96,3.53-3.84,2.74-3.01-1.28-5.93-2.83-8.75-4.39-4.12-2.27-7.85-5.5-9.93-9.72-2.08-4.22-2.28-9.52.2-13.51Zm-13.48,51.87c4.79-6.26,13.05-7.79,20.45-6.58,5.41.89,11.28,3.15,16.43,5.49,1.07.48,1.66,1.68,1.3,2.8-2.21,6.86-2.13,14.43.18,21.25.53,1.56-.62,3.15-2.27,3.13-8.72-.14-17.47-1.36-25.71-4.18-5.95-2.03-12.22-5.2-13.13-12.34-.43-3.4.66-6.85,2.74-9.57Zm.56,56.78c-1.66-2.19-2.65-5.04-2.03-7.72.69-2.97,3.27-5.23,6.12-6.32,2.85-1.09,5.97-1.2,9.03-1.2,15.89-.03,31.79,2.35,46.98,7.03,1.36.42,2.18,1.85,1.83,3.23-2.45,9.58-.98,21.14,4.01,29.85,1.15,2.02-.63,4.45-2.91,3.99-20.22-4.08-39.68-12.01-56.8-23.51-2.28-1.53-4.56-3.16-6.22-5.35Zm-.49,66.83c3.03-3.8,7.1-6.82,11.67-8.37,4.82-1.63,10.37-1.16,15.37.38,1.38.42,1.91,2.1,1.06,3.26-1.77,2.44-2.62,5.56-2.31,8.56.14,1.35-1.06,2.44-2.41,2.27-7.45-.93-14.44-1.39-21.86-2.29-1.84-.22-2.69-2.36-1.53-3.81Zm-15.25,42.31c-.25-5.52.86-11.18,3.39-16.03,1.26-2.42,3.64-4.06,6.34-4.43,10.14-1.42,19.45-1.32,29.73-.26,1.25.13,2.3,1.18,2.25,2.43-.02.49.03.99.15,1.47.3,1.22-.17,2.49-1.32,3.02-12,5.51-23.99,11.06-35.99,16.57-2.06.95-4.44-.49-4.54-2.76Zm27.4,41.24c-4.58,1.72-10.34,2.89-13.6-1.32-1.3-1.69-1.76-3.9-1.5-6.02.56-4.58,3.63-7.98,6.71-11.11,6.75-6.85,14.33-13.42,23.4-16.16,1.6-.48,3.23.71,3.3,2.37.22,5.21,2.82,10.32,6.9,13.57,1.29,1.03,1.26,2.98-.01,4.03-7.67,6.39-15.66,11.05-25.2,14.64Zm49.04,19.28l-9.82,11.45c-2.7,3.15-5.65,6.48-10.9,5.45-2.42-.48-4.61-1.91-6.04-3.92-4.01-5.65-2.21-12.94,1.72-18.05,2.77-3.61,6.48-6.35,10.28-8.89,1.03-.69,2.42-.5,3.19.47,3.18,4.01,6.47,7.45,10.85,9.83,1.35.73,1.72,2.5.72,3.66Zm-12.13-61.76c.2-2.09,1.75-3.81,3.78-4.36,14.35-3.87,28.05-7.5,42.54-10.12,1.9-.34,2.96,2.11,1.42,3.27-11.75,8.8-24.01,16.91-36.7,24.29-1.94,1.13-4.38.83-6.06-.66-1.76-1.57-3.24-3.53-4.05-5.61-.84-2.15-1.15-4.49-.94-6.79Zm49.35,13.89l-20.13,27.18c-.78,1.05-2.04,1.69-3.34,1.59-3.58-.27-7.04-2.07-9.18-4.85-1.39-1.81-.92-4.44,1.01-5.67,9.57-6.14,20.56-13.19,30.17-19.78,1-.69,2.2.55,1.47,1.53Zm-2.61-50c-12.83,1.86-25.83,2.65-38.79,2.33-2.04-.05-4.13-.14-6.01-.94-1.87-.8-3.51-2.49-3.66-4.52-.13-1.68.75-3.27,1.73-4.63,2.92-4.03,6.95-7.16,11.57-9,11.01-4.38,22.25-3.06,33.31-1.22,1.77.3,3.1,1.85,3.01,3.64-.16,3.18.34,6.51,1.58,9.4.92,2.14-.44,4.6-2.75,4.93Zm30.83,19.71c-2.13,2.28-5.49,4.73-8.02,2.9-1.26-.91-1.7-2.57-2.01-4.1-.27-1.35-.5-2.7-.71-4.06-1.08-7.25-.87-14.67.65-21.84,0-.03.01-.06.02-.09.96-4.53,2.87-8.04,7.38-8.73,9.44.14,23.53.33,24.17,6.17.97,8.87-16.04,23.92-21.48,29.74Zm25.3-52.25c-16.06-1.12-32.12-1.34-47.66-5.57-7.47-2.03-14.13-6.9-18.32-13.41-3.6-5.58-4.76-11.99-4.25-18.53.13-1.71,1.79-2.9,3.45-2.48,13.24,3.36,26.5,6.9,38.86,12.69,11.55,5.41,22.39,12.95,30.17,22.98,1.42,1.83.06,4.49-2.25,4.33Zm27.34-4.83c-.87.82-2.3.77-3.35.19-1.05-.58-1.8-1.56-2.52-2.52-20.18-26.92-37.4-56.06-51.25-86.72-1.8-3.99-11.34-23.43-2.38-23.82,8.32-.37,15.94,11.34,20.33,16.83,13.52,16.9,24.12,36.13,31.23,56.57,4.03,11.57,6.94,23.53,8.63,35.67.19,1.33.28,2.88-.69,3.81Zm24.65,211.12c-1.56,6.26-6.15,12.2-13.06,12.58-2.47.14-4.95-.69-6.83-2.29-4.07-3.47-3.3-7.85-2.52-11.93l2.85-14.81c.29-1.51,1.9-2.32,3.31-1.71,4.59,1.95,9.33,2.39,14.45,2.38,1.24,0,2.25.97,2.36,2.2.37,4.56.54,9.16-.56,13.58Zm8.09-109.19c-1.39.71-2.96,1.4-4.46.98-3.01-.85-3.18-5-2.72-8.09,1.18-7.88,2.37-30.56,9.92-35.32,4.96-3.13,13.88,7.78,19.87,15.09,2.27,3.96.71,7.64-2.24,11.21-.02.02-.04.05-.06.07-4.67,5.65-10.35,10.43-16.7,14.1-1.19.69-2.39,1.34-3.62,1.97Zm11.15,63.3c-2.12-14.52-3.4-29.17-3.82-43.84-.06-1.93,2.53-2.62,3.44-.92,6.97,12.98,12.64,25.96,18.54,39.6.83,1.93.45,4.22-1.06,5.67-1.66,1.6-3.69,2.81-5.9,3.49-2.14.66-4.59.73-6.92.32-2.21-.38-3.96-2.11-4.29-4.33Zm26.47,50.93c-.53,4.36-1.28,8.88-4.52,12.17-1.5,1.52-3.51,2.54-5.64,2.57-5.33.07-8-5.17-9.5-9.82-3.13-9.71-4.45-18.86-4.22-28.84.04-1.65,1.54-2.89,3.15-2.52,5.08,1.17,10.69.03,14.91-3.04,1.35-.98,3.3-.44,3.91,1.11,3.5,8.81,3.07,18.84,1.91,28.38Zm12.13-77.65c-8.31-9.95-15.78-20.61-22.31-31.82-1.17-2.01-.1-4.6,2.15-5.22,3.04-.83,5.96-2.51,8.35-4.61,1.35-1.19,3.39-1.11,4.72.09,8.32,7.51,16.35,15.49,19.77,26.83,1.43,4.76,1.49,9.87.15,14.66-.45,1.62-1.15,3.29-2.54,4.24-1.69,1.15-4.02.91-5.82-.05-1.8-.97-3.17-2.55-4.47-4.12Zm27.99,65.73c-2.22,5-5.97,9.38-10.44,12.62-1.84,1.33-4.45.36-4.99-1.84-3.15-12.83-6.27-25.66-9.42-38.49-.3-1.22.4-2.39,1.54-2.91.45-.2.87-.47,1.24-.79.95-.82,2.42-.65,3.3.25,7.23,7.39,13.1,14.61,18.3,23.44,1.38,2.35,1.58,5.23.47,7.72Zm13.19-25.64c-.42,1.81-2.62,2.48-3.94,1.17-5.32-5.25-10.03-10.43-15.39-15.68-.97-.95-.86-2.56.28-3.3,2.54-1.63,4.45-4.23,5.26-7.13.39-1.39,2.03-2.01,3.21-1.2,4.31,2.95,8.14,7.01,9.86,11.79,1.63,4.55,1.8,9.61.71,14.34Zm59.32-45.18c-1.71,2.15-4.56,3.15-7.3,3.21-2.75.06-5.44-.71-8.06-1.54-19.65-6.25-37.97-16.54-53.75-29.83-1.78-1.5-.98-4.41,1.31-4.76,9.92-1.52,19.88-7.55,25.86-15.44.86-1.14,2.49-1.39,3.66-.58,13.11,8.98,24.87,19.94,34.74,32.4,1.9,2.39,3.76,4.9,4.67,7.82.92,2.91.75,6.33-1.14,8.72Zm37.5-31.68c-.84,3.33-2.86,6.32-5.79,8.1-6.15,3.74-12.54.8-17.83-2.6-7.33-4.7-13.73-10.79-19.27-17.53-1.05-1.27-.52-3.16,1.04-3.72,6.78-2.43,12.76-7.09,16.75-13.08.65-.98,1.95-1.26,3-.73,5.04,2.58,10.46,5.77,14.52,9.45,5.56,5.04,9.5,12.45,7.58,20.1Zm32.22-42.82c-1.58,4.43-5.85,7.57-10.45,8.57-4.6,1-9.44.08-13.79-1.73-2.97-1.24-6.01-2.56-8.88-4.12-1.79-.98-1.87-3.47-.25-4.71,6.22-4.75,10.83-11.61,12.84-19.18.45-1.69,2.3-2.56,3.89-1.82,4.47,2.09,9.62,4.37,12.6,7.66,3.72,4.12,5.9,10.1,4.04,15.33Z"/></g></svg>